<svg width="64" height="64" viewBox="0 0 64 64" fill="none" xmlns="http://www.w3.org/2000/svg">
<path d="M64 32C64 14.3269 49.6731 0 32 0C14.3269 0 0 14.3269 0 32C0 49.6731 14.3269 64 32 64C49.6731 64 64 49.6731 64 32Z" fill="white"/>
<path fill-rule="evenodd" clip-rule="evenodd" d="M47.6598 32.3637C47.6598 31.2291 47.558 30.1382 47.3689 29.0909H32.2998V35.28H40.9107C40.5398 37.2801 39.4125 38.9746 37.718 40.1091V44.1237H42.8889C45.9144 41.3382 47.6598 37.2364 47.6598 32.3637Z" fill="#4285F4"/>
<path fill-rule="evenodd" clip-rule="evenodd" d="M32.2992 47.9999C36.6192 47.9999 40.241 46.5672 42.8883 44.1236L37.7174 40.109C36.2847 41.069 34.4519 41.6363 32.2992 41.6363C28.1319 41.6363 24.6046 38.8217 23.3464 35.0399H18.001V39.1854C20.6337 44.4145 26.0446 47.9999 32.2992 47.9999Z" fill="#34A853"/>
<path fill-rule="evenodd" clip-rule="evenodd" d="M23.3471 35.0399C23.0271 34.0799 22.8453 33.0545 22.8453 31.9999C22.8453 30.9454 23.0271 29.9199 23.3471 28.9599V24.8145H18.0016C16.918 26.9745 16.2998 29.4181 16.2998 31.9999C16.2998 34.5817 16.918 37.0254 18.0016 39.1854L23.3471 35.0399Z" fill="#FBBC05"/>
<path fill-rule="evenodd" clip-rule="evenodd" d="M32.2992 22.3637C34.6483 22.3637 36.7574 23.1709 38.4156 24.7564L43.0047 20.1673C40.2338 17.5855 36.6119 16 32.2992 16C26.0446 16 20.6337 19.5855 18.001 24.8146L23.3464 28.96C24.6046 25.1782 28.1319 22.3637 32.2992 22.3637Z" fill="#EA4335"/>
</svg>
