<svg width="64" height="64" viewBox="0 0 64 64" fill="none" xmlns="http://www.w3.org/2000/svg">
<rect width="64" height="64" rx="12" fill="#13161B"/>
<path d="M20 42.6673V21.334C20 19.5748 20 18.6943 20.3702 18.1738C20.6933 17.7195 21.1913 17.4213 21.7441 17.35C22.3774 17.2683 23.154 17.6825 24.7051 18.5097L44.7051 29.1764L44.7123 29.1796C46.4265 30.0938 47.2839 30.5511 47.5652 31.1607C47.8105 31.6924 47.8105 32.3062 47.5652 32.8379C47.2835 33.4483 46.424 33.9074 44.7051 34.8242L24.7051 45.4909C23.1529 46.3187 22.3776 46.7313 21.7441 46.6496C21.1913 46.5783 20.6933 46.2801 20.3702 45.8258C20 45.3054 20 44.4264 20 42.6673Z" fill="#FCE802" fill-opacity="0.2" stroke="#FCE802" stroke-width="4" stroke-linecap="round" stroke-linejoin="round"/>
</svg>
