<svg width="100" height="100" viewBox="0 0 100 100" fill="none" xmlns="http://www.w3.org/2000/svg">
<g clip-path="url(#clip0_758_31612)">
<path d="M4 0H0V4H4V0Z" fill="#F7E417"/>
<path d="M8 0H4V4H8V0Z" fill="#F7E417"/>
<path d="M12 0H8V4H12V0Z" fill="#F7E417"/>
<path d="M16 0H12V4H16V0Z" fill="#F7E417"/>
<path d="M20 0H16V4H20V0Z" fill="#F7E417"/>
<path d="M24 0H20V4H24V0Z" fill="#F7E417"/>
<path d="M28 0H24V4H28V0Z" fill="#F7E417"/>
<path d="M36 0H32V4H36V0Z" fill="#F7E417"/>
<path d="M64 0H60V4H64V0Z" fill="#F7E417"/>
<path d="M68 0H64V4H68V0Z" fill="#F7E417"/>
<path d="M76 0H72V4H76V0Z" fill="#F7E417"/>
<path d="M80 0H76V4H80V0Z" fill="#F7E417"/>
<path d="M84 0H80V4H84V0Z" fill="#F7E417"/>
<path d="M88 0H84V4H88V0Z" fill="#F7E417"/>
<path d="M92 0H88V4H92V0Z" fill="#F7E417"/>
<path d="M96 0H92V4H96V0Z" fill="#F7E417"/>
<path d="M100 0H96V4H100V0Z" fill="#F7E417"/>
<path d="M4 4H0V8H4V4Z" fill="#F7E417"/>
<path d="M28 4H24V8H28V4Z" fill="#F7E417"/>
<path d="M36 4H32V8H36V4Z" fill="#F7E417"/>
<path d="M44 4H40V8H44V4Z" fill="#F7E417"/>
<path d="M52 4H48V8H52V4Z" fill="#F7E417"/>
<path d="M60 4H56V8H60V4Z" fill="#F7E417"/>
<path d="M76 4H72V8H76V4Z" fill="#F7E417"/>
<path d="M100 4H96V8H100V4Z" fill="#F7E417"/>
<path d="M4 8H0V12H4V8Z" fill="#F7E417"/>
<path d="M12 8H8V12H12V8Z" fill="#F7E417"/>
<path d="M16 8H12V12H16V8Z" fill="#F7E417"/>
<path d="M20 8H16V12H20V8Z" fill="#F7E417"/>
<path d="M28 8H24V12H28V8Z" fill="#F7E417"/>
<path d="M40 8H36V12H40V8Z" fill="#F7E417"/>
<path d="M52 8H48V12H52V8Z" fill="#F7E417"/>
<path d="M64 8H60V12H64V8Z" fill="#F7E417"/>
<path d="M76 8H72V12H76V8Z" fill="#F7E417"/>
<path d="M84 8H80V12H84V8Z" fill="#F7E417"/>
<path d="M88 8H84V12H88V8Z" fill="#F7E417"/>
<path d="M92 8H88V12H92V8Z" fill="#F7E417"/>
<path d="M100 8H96V12H100V8Z" fill="#F7E417"/>
<path d="M4 12H0V16H4V12Z" fill="#F7E417"/>
<path d="M12 12H8V16H12V12Z" fill="#F7E417"/>
<path d="M16 12H12V16H16V12Z" fill="#F7E417"/>
<path d="M20 12H16V16H20V12Z" fill="#F7E417"/>
<path d="M28 12H24V16H28V12Z" fill="#F7E417"/>
<path d="M36 12H32V16H36V12Z" fill="#F7E417"/>
<path d="M44 12H40V16H44V12Z" fill="#F7E417"/>
<path d="M48 12H44V16H48V12Z" fill="#F7E417"/>
<path d="M60 12H56V16H60V12Z" fill="#F7E417"/>
<path d="M64 12H60V16H64V12Z" fill="#F7E417"/>
<path d="M68 12H64V16H68V12Z" fill="#F7E417"/>
<path d="M76 12H72V16H76V12Z" fill="#F7E417"/>
<path d="M84 12H80V16H84V12Z" fill="#F7E417"/>
<path d="M88 12H84V16H88V12Z" fill="#F7E417"/>
<path d="M92 12H88V16H92V12Z" fill="#F7E417"/>
<path d="M100 12H96V16H100V12Z" fill="#F7E417"/>
<path d="M4 16H0V20H4V16Z" fill="#F7E417"/>
<path d="M12 16H8V20H12V16Z" fill="#F7E417"/>
<path d="M16 16H12V20H16V16Z" fill="#F7E417"/>
<path d="M20 16H16V20H20V16Z" fill="#F7E417"/>
<path d="M28 16H24V20H28V16Z" fill="#F7E417"/>
<path d="M36 16H32V20H36V16Z" fill="#F7E417"/>
<path d="M56 16H52V20H56V16Z" fill="#F7E417"/>
<path d="M60 16H56V20H60V16Z" fill="#F7E417"/>
<path d="M76 16H72V20H76V16Z" fill="#F7E417"/>
<path d="M84 16H80V20H84V16Z" fill="#F7E417"/>
<path d="M88 16H84V20H88V16Z" fill="#F7E417"/>
<path d="M92 16H88V20H92V16Z" fill="#F7E417"/>
<path d="M100 16H96V20H100V16Z" fill="#F7E417"/>
<path d="M4 20H0V24H4V20Z" fill="#F7E417"/>
<path d="M28 20H24V24H28V20Z" fill="#F7E417"/>
<path d="M36 20H32V24H36V20Z" fill="#F7E417"/>
<path d="M48 20H44V24H48V20Z" fill="#F7E417"/>
<path d="M76 20H72V24H76V20Z" fill="#F7E417"/>
<path d="M100 20H96V24H100V20Z" fill="#F7E417"/>
<path d="M4 24H0V28H4V24Z" fill="#F7E417"/>
<path d="M8 24H4V28H8V24Z" fill="#F7E417"/>
<path d="M12 24H8V28H12V24Z" fill="#F7E417"/>
<path d="M16 24H12V28H16V24Z" fill="#F7E417"/>
<path d="M20 24H16V28H20V24Z" fill="#F7E417"/>
<path d="M24 24H20V28H24V24Z" fill="#F7E417"/>
<path d="M28 24H24V28H28V24Z" fill="#F7E417"/>
<path d="M36 24H32V28H36V24Z" fill="#F7E417"/>
<path d="M44 24H40V28H44V24Z" fill="#F7E417"/>
<path d="M52 24H48V28H52V24Z" fill="#F7E417"/>
<path d="M60 24H56V28H60V24Z" fill="#F7E417"/>
<path d="M68 24H64V28H68V24Z" fill="#F7E417"/>
<path d="M76 24H72V28H76V24Z" fill="#F7E417"/>
<path d="M80 24H76V28H80V24Z" fill="#F7E417"/>
<path d="M84 24H80V28H84V24Z" fill="#F7E417"/>
<path d="M88 24H84V28H88V24Z" fill="#F7E417"/>
<path d="M92 24H88V28H92V24Z" fill="#F7E417"/>
<path d="M96 24H92V28H96V24Z" fill="#F7E417"/>
<path d="M100 24H96V28H100V24Z" fill="#F7E417"/>
<path d="M40 28H36V32H40V28Z" fill="#F7E417"/>
<path d="M44 28H40V32H44V28Z" fill="#F7E417"/>
<path d="M48 28H44V32H48V28Z" fill="#F7E417"/>
<path d="M52 28H48V32H52V28Z" fill="#F7E417"/>
<path d="M60 28H56V32H60V28Z" fill="#F7E417"/>
<path d="M64 28H60V32H64V28Z" fill="#F7E417"/>
<path d="M68 28H64V32H68V28Z" fill="#F7E417"/>
<path d="M16 32H12V36H16V32Z" fill="#F7E417"/>
<path d="M28 32H24V36H28V32Z" fill="#F7E417"/>
<path d="M40 32H36V36H40V32Z" fill="#F7E417"/>
<path d="M52 32H48V36H52V32Z" fill="#F7E417"/>
<path d="M56 32H52V36H56V32Z" fill="#F7E417"/>
<path d="M80 32H76V36H80V32Z" fill="#F7E417"/>
<path d="M84 32H80V36H84V32Z" fill="#F7E417"/>
<path d="M88 32H84V36H88V32Z" fill="#F7E417"/>
<path d="M96 32H92V36H96V32Z" fill="#F7E417"/>
<path d="M100 32H96V36H100V32Z" fill="#F7E417"/>
<path d="M4 36H0V40H4V36Z" fill="#F7E417"/>
<path d="M8 36H4V40H8V36Z" fill="#F7E417"/>
<path d="M12 36H8V40H12V36Z" fill="#F7E417"/>
<path d="M16 36H12V40H16V36Z" fill="#F7E417"/>
<path d="M40 36H36V40H40V36Z" fill="#F7E417"/>
<path d="M68 36H64V40H68V36Z" fill="#F7E417"/>
<path d="M84 36H80V40H84V36Z" fill="#F7E417"/>
<path d="M96 36H92V40H96V36Z" fill="#F7E417"/>
<path d="M4 40H0V44H4V40Z" fill="#F7E417"/>
<path d="M12 40H8V44H12V40Z" fill="#F7E417"/>
<path d="M16 40H12V44H16V40Z" fill="#F7E417"/>
<path d="M24 40H20V44H24V40Z" fill="#F7E417"/>
<path d="M28 40H24V44H28V40Z" fill="#F7E417"/>
<path d="M32 40H28V44H32V40Z" fill="#F7E417"/>
<path d="M40 40H36V44H40V40Z" fill="#F7E417"/>
<path d="M44 40H40V44H44V40Z" fill="#F7E417"/>
<path d="M48 40H44V44H48V40Z" fill="#F7E417"/>
<path d="M56 40H52V44H56V40Z" fill="#F7E417"/>
<path d="M64 40H60V44H64V40Z" fill="#F7E417"/>
<path d="M76 40H72V44H76V40Z" fill="#F7E417"/>
<path d="M80 40H76V44H80V40Z" fill="#F7E417"/>
<path d="M92 40H88V44H92V40Z" fill="#F7E417"/>
<path d="M96 40H92V44H96V40Z" fill="#F7E417"/>
<path d="M100 40H96V44H100V40Z" fill="#F7E417"/>
<path d="M4 44H0V48H4V44Z" fill="#F7E417"/>
<path d="M8 44H4V48H8V44Z" fill="#F7E417"/>
<path d="M12 44H8V48H12V44Z" fill="#F7E417"/>
<path d="M16 44H12V48H16V44Z" fill="#F7E417"/>
<path d="M20 44H16V48H20V44Z" fill="#F7E417"/>
<path d="M24 44H20V48H24V44Z" fill="#F7E417"/>
<path d="M40 44H36V48H40V44Z" fill="#F7E417"/>
<path d="M52 44H48V48H52V44Z" fill="#F7E417"/>
<path d="M56 44H52V48H56V44Z" fill="#F7E417"/>
<path d="M64 44H60V48H64V44Z" fill="#F7E417"/>
<path d="M84 44H80V48H84V44Z" fill="#F7E417"/>
<path d="M96 44H92V48H96V44Z" fill="#F7E417"/>
<path d="M100 44H96V48H100V44Z" fill="#F7E417"/>
<path d="M24 48H20V52H24V48Z" fill="#F7E417"/>
<path d="M28 48H24V52H28V48Z" fill="#F7E417"/>
<path d="M32 48H28V52H32V48Z" fill="#F7E417"/>
<path d="M48 48H44V52H48V48Z" fill="#F7E417"/>
<path d="M52 48H48V52H52V48Z" fill="#F7E417"/>
<path d="M60 48H56V52H60V48Z" fill="#F7E417"/>
<path d="M76 48H72V52H76V48Z" fill="#F7E417"/>
<path d="M80 48H76V52H80V48Z" fill="#F7E417"/>
<path d="M84 48H80V52H84V48Z" fill="#F7E417"/>
<path d="M88 48H84V52H88V48Z" fill="#F7E417"/>
<path d="M92 48H88V52H92V48Z" fill="#F7E417"/>
<path d="M96 48H92V52H96V48Z" fill="#F7E417"/>
<path d="M100 48H96V52H100V48Z" fill="#F7E417"/>
<path d="M8 52H4V56H8V52Z" fill="#F7E417"/>
<path d="M12 52H8V56H12V52Z" fill="#F7E417"/>
<path d="M16 52H12V56H16V52Z" fill="#F7E417"/>
<path d="M24 52H20V56H24V52Z" fill="#F7E417"/>
<path d="M32 52H28V56H32V52Z" fill="#F7E417"/>
<path d="M36 52H32V56H36V52Z" fill="#F7E417"/>
<path d="M56 52H52V56H56V52Z" fill="#F7E417"/>
<path d="M64 52H60V56H64V52Z" fill="#F7E417"/>
<path d="M68 52H64V56H68V52Z" fill="#F7E417"/>
<path d="M72 52H68V56H72V52Z" fill="#F7E417"/>
<path d="M92 52H88V56H92V52Z" fill="#F7E417"/>
<path d="M96 52H92V56H96V52Z" fill="#F7E417"/>
<path d="M4 56H0V60H4V56Z" fill="#F7E417"/>
<path d="M16 56H12V60H16V56Z" fill="#F7E417"/>
<path d="M28 56H24V60H28V56Z" fill="#F7E417"/>
<path d="M44 56H40V60H44V56Z" fill="#F7E417"/>
<path d="M56 56H52V60H56V56Z" fill="#F7E417"/>
<path d="M60 56H56V60H60V56Z" fill="#F7E417"/>
<path d="M84 56H80V60H84V56Z" fill="#F7E417"/>
<path d="M96 56H92V60H96V56Z" fill="#F7E417"/>
<path d="M8 60H4V64H8V60Z" fill="#F7E417"/>
<path d="M36 60H32V64H36V60Z" fill="#F7E417"/>
<path d="M44 60H40V64H44V60Z" fill="#F7E417"/>
<path d="M48 60H44V64H48V60Z" fill="#F7E417"/>
<path d="M60 60H56V64H60V60Z" fill="#F7E417"/>
<path d="M64 60H60V64H64V60Z" fill="#F7E417"/>
<path d="M72 60H68V64H72V60Z" fill="#F7E417"/>
<path d="M76 60H72V64H76V60Z" fill="#F7E417"/>
<path d="M92 60H88V64H92V60Z" fill="#F7E417"/>
<path d="M96 60H92V64H96V60Z" fill="#F7E417"/>
<path d="M4 64H0V68H4V64Z" fill="#F7E417"/>
<path d="M8 64H4V68H8V64Z" fill="#F7E417"/>
<path d="M12 64H8V68H12V64Z" fill="#F7E417"/>
<path d="M20 64H16V68H20V64Z" fill="#F7E417"/>
<path d="M24 64H20V68H24V64Z" fill="#F7E417"/>
<path d="M28 64H24V68H28V64Z" fill="#F7E417"/>
<path d="M32 64H28V68H32V64Z" fill="#F7E417"/>
<path d="M36 64H32V68H36V64Z" fill="#F7E417"/>
<path d="M40 64H36V68H40V64Z" fill="#F7E417"/>
<path d="M44 64H40V68H44V64Z" fill="#F7E417"/>
<path d="M48 64H44V68H48V64Z" fill="#F7E417"/>
<path d="M56 64H52V68H56V64Z" fill="#F7E417"/>
<path d="M60 64H56V68H60V64Z" fill="#F7E417"/>
<path d="M68 64H64V68H68V64Z" fill="#F7E417"/>
<path d="M72 64H68V68H72V64Z" fill="#F7E417"/>
<path d="M76 64H72V68H76V64Z" fill="#F7E417"/>
<path d="M80 64H76V68H80V64Z" fill="#F7E417"/>
<path d="M84 64H80V68H84V64Z" fill="#F7E417"/>
<path d="M100 64H96V68H100V64Z" fill="#F7E417"/>
<path d="M36 68H32V72H36V68Z" fill="#F7E417"/>
<path d="M48 68H44V72H48V68Z" fill="#F7E417"/>
<path d="M52 68H48V72H52V68Z" fill="#F7E417"/>
<path d="M60 68H56V72H60V68Z" fill="#F7E417"/>
<path d="M64 68H60V72H64V68Z" fill="#F7E417"/>
<path d="M68 68H64V72H68V68Z" fill="#F7E417"/>
<path d="M84 68H80V72H84V68Z" fill="#F7E417"/>
<path d="M4 72H0V76H4V72Z" fill="#F7E417"/>
<path d="M8 72H4V76H8V72Z" fill="#F7E417"/>
<path d="M12 72H8V76H12V72Z" fill="#F7E417"/>
<path d="M16 72H12V76H16V72Z" fill="#F7E417"/>
<path d="M20 72H16V76H20V72Z" fill="#F7E417"/>
<path d="M24 72H20V76H24V72Z" fill="#F7E417"/>
<path d="M28 72H24V76H28V72Z" fill="#F7E417"/>
<path d="M68 72H64V76H68V72Z" fill="#F7E417"/>
<path d="M76 72H72V76H76V72Z" fill="#F7E417"/>
<path d="M84 72H80V76H84V72Z" fill="#F7E417"/>
<path d="M96 72H92V76H96V72Z" fill="#F7E417"/>
<path d="M100 72H96V76H100V72Z" fill="#F7E417"/>
<path d="M4 76H0V80H4V76Z" fill="#F7E417"/>
<path d="M28 76H24V80H28V76Z" fill="#F7E417"/>
<path d="M40 76H36V80H40V76Z" fill="#F7E417"/>
<path d="M52 76H48V80H52V76Z" fill="#F7E417"/>
<path d="M56 76H52V80H56V76Z" fill="#F7E417"/>
<path d="M68 76H64V80H68V76Z" fill="#F7E417"/>
<path d="M84 76H80V80H84V76Z" fill="#F7E417"/>
<path d="M92 76H88V80H92V76Z" fill="#F7E417"/>
<path d="M96 76H92V80H96V76Z" fill="#F7E417"/>
<path d="M100 76H96V80H100V76Z" fill="#F7E417"/>
<path d="M4 80H0V84H4V80Z" fill="#F7E417"/>
<path d="M12 80H8V84H12V80Z" fill="#F7E417"/>
<path d="M16 80H12V84H16V80Z" fill="#F7E417"/>
<path d="M20 80H16V84H20V80Z" fill="#F7E417"/>
<path d="M28 80H24V84H28V80Z" fill="#F7E417"/>
<path d="M40 80H36V84H40V80Z" fill="#F7E417"/>
<path d="M48 80H44V84H48V80Z" fill="#F7E417"/>
<path d="M52 80H48V84H52V80Z" fill="#F7E417"/>
<path d="M56 80H52V84H56V80Z" fill="#F7E417"/>
<path d="M64 80H60V84H64V80Z" fill="#F7E417"/>
<path d="M68 80H64V84H68V80Z" fill="#F7E417"/>
<path d="M72 80H68V84H72V80Z" fill="#F7E417"/>
<path d="M76 80H72V84H76V80Z" fill="#F7E417"/>
<path d="M80 80H76V84H80V80Z" fill="#F7E417"/>
<path d="M84 80H80V84H84V80Z" fill="#F7E417"/>
<path d="M88 80H84V84H88V80Z" fill="#F7E417"/>
<path d="M92 80H88V84H92V80Z" fill="#F7E417"/>
<path d="M96 80H92V84H96V80Z" fill="#F7E417"/>
<path d="M4 84H0V88H4V84Z" fill="#F7E417"/>
<path d="M12 84H8V88H12V84Z" fill="#F7E417"/>
<path d="M16 84H12V88H16V84Z" fill="#F7E417"/>
<path d="M20 84H16V88H20V84Z" fill="#F7E417"/>
<path d="M28 84H24V88H28V84Z" fill="#F7E417"/>
<path d="M36 84H32V88H36V84Z" fill="#F7E417"/>
<path d="M40 84H36V88H40V84Z" fill="#F7E417"/>
<path d="M44 84H40V88H44V84Z" fill="#F7E417"/>
<path d="M48 84H44V88H48V84Z" fill="#F7E417"/>
<path d="M60 84H56V88H60V84Z" fill="#F7E417"/>
<path d="M64 84H60V88H64V84Z" fill="#F7E417"/>
<path d="M68 84H64V88H68V84Z" fill="#F7E417"/>
<path d="M76 84H72V88H76V84Z" fill="#F7E417"/>
<path d="M80 84H76V88H80V84Z" fill="#F7E417"/>
<path d="M84 84H80V88H84V84Z" fill="#F7E417"/>
<path d="M4 88H0V92H4V88Z" fill="#F7E417"/>
<path d="M12 88H8V92H12V88Z" fill="#F7E417"/>
<path d="M16 88H12V92H16V88Z" fill="#F7E417"/>
<path d="M20 88H16V92H20V88Z" fill="#F7E417"/>
<path d="M28 88H24V92H28V88Z" fill="#F7E417"/>
<path d="M40 88H36V92H40V88Z" fill="#F7E417"/>
<path d="M44 88H40V92H44V88Z" fill="#F7E417"/>
<path d="M48 88H44V92H48V88Z" fill="#F7E417"/>
<path d="M52 88H48V92H52V88Z" fill="#F7E417"/>
<path d="M64 88H60V92H64V88Z" fill="#F7E417"/>
<path d="M68 88H64V92H68V88Z" fill="#F7E417"/>
<path d="M76 88H72V92H76V88Z" fill="#F7E417"/>
<path d="M80 88H76V92H80V88Z" fill="#F7E417"/>
<path d="M84 88H80V92H84V88Z" fill="#F7E417"/>
<path d="M92 88H88V92H92V88Z" fill="#F7E417"/>
<path d="M100 88H96V92H100V88Z" fill="#F7E417"/>
<path d="M4 92H0V96H4V92Z" fill="#F7E417"/>
<path d="M28 92H24V96H28V92Z" fill="#F7E417"/>
<path d="M40 92H36V96H40V92Z" fill="#F7E417"/>
<path d="M44 92H40V96H44V92Z" fill="#F7E417"/>
<path d="M48 92H44V96H48V92Z" fill="#F7E417"/>
<path d="M60 92H56V96H60V92Z" fill="#F7E417"/>
<path d="M96 92H92V96H96V92Z" fill="#F7E417"/>
<path d="M100 92H96V96H100V92Z" fill="#F7E417"/>
<path d="M4 96H0V100H4V96Z" fill="#F7E417"/>
<path d="M8 96H4V100H8V96Z" fill="#F7E417"/>
<path d="M12 96H8V100H12V96Z" fill="#F7E417"/>
<path d="M16 96H12V100H16V96Z" fill="#F7E417"/>
<path d="M20 96H16V100H20V96Z" fill="#F7E417"/>
<path d="M24 96H20V100H24V96Z" fill="#F7E417"/>
<path d="M28 96H24V100H28V96Z" fill="#F7E417"/>
<path d="M40 96H36V100H40V96Z" fill="#F7E417"/>
<path d="M44 96H40V100H44V96Z" fill="#F7E417"/>
<path d="M60 96H56V100H60V96Z" fill="#F7E417"/>
<path d="M68 96H64V100H68V96Z" fill="#F7E417"/>
<path d="M72 96H68V100H72V96Z" fill="#F7E417"/>
<path d="M76 96H72V100H76V96Z" fill="#F7E417"/>
<path d="M80 96H76V100H80V96Z" fill="#F7E417"/>
<path d="M84 96H80V100H84V96Z" fill="#F7E417"/>
<path d="M88 96H84V100H88V96Z" fill="#F7E417"/>
<path d="M96 96H92V100H96V96Z" fill="#F7E417"/>
<path d="M100 96H96V100H100V96Z" fill="#F7E417"/>
</g>
<defs>
<clipPath id="clip0_758_31612">
<rect width="100" height="100" fill="white"/>
</clipPath>
</defs>
</svg>
