<svg xmlns="http://www.w3.org/2000/svg" version="1.1" xmlns:xlink="http://www.w3.org/1999/xlink" xmlns:svgjs="http://svgjs.com/svgjs" width="3840" height="2160" preserveAspectRatio="none" viewBox="0 0 3840 2160"><g mask="url(&quot;#SvgjsMask1146&quot;)" fill="none"><rect width="3840" height="2160" x="0" y="0" fill="url(#SvgjsLinearGradient1147)"></rect><path d="M3840 0L2721.31 0L3840 135.74z" fill="rgba(255, 255, 255, .1)"></path><path d="M2721.31 0L3840 135.74L3840 960.75L1894.9899999999998 0z" fill="rgba(255, 255, 255, .075)"></path><path d="M1894.9899999999998 0L3840 960.75L3840 1319.97L1197.6599999999999 0z" fill="rgba(255, 255, 255, .05)"></path><path d="M1197.6599999999999 0L3840 1319.97L3840 1438.78L871.9199999999998 0z" fill="rgba(255, 255, 255, .025)"></path><path d="M0 2160L1495.34 2160L0 1954.13z" fill="rgba(0, 0, 0, .1)"></path><path d="M0 1954.13L1495.34 2160L2331.0099999999998 2160L0 1283.8000000000002z" fill="rgba(0, 0, 0, .075)"></path><path d="M0 1283.8L2331.0099999999998 2160L2882.79 2160L0 1095.08z" fill="rgba(0, 0, 0, .05)"></path><path d="M0 1095.08L2882.79 2160L3380.41 2160L0 1052.48z" fill="rgba(0, 0, 0, .025)"></path></g><defs><mask id="SvgjsMask1146"><rect width="3840" height="2160" fill="#ffffff"></rect></mask><linearGradient x1="10.94%" y1="-19.44%" x2="89.06%" y2="119.44%" gradientUnits="userSpaceOnUse" id="SvgjsLinearGradient1147"><stop stop-color="#0e2a47" offset="0"></stop><stop stop-color="rgba(0, 158, 132, 1)" offset="1"></stop></linearGradient></defs></svg>